<svg width="16" height="15" xmlns="http://www.w3.org/2000/svg">
 <!-- Generator: Sketch 40.3 (33839) - http://www.bohemiancoding.com/sketch -->
 <title>device-mobile</title>
 <desc>Created with Sketch.</desc>

 <g>
  <title>background</title>
  <rect fill="none" id="canvas_background" height="17" width="18" y="-1" x="-1"/>
 </g>
 <g>
  <title>Layer 1</title>
  <g stroke="null" fill="#000000" id="device-mobile">
   <path stroke="null" transform="rotate(-90 8.000000000000002,7.531363487243653) " id="Shape" d="m14.136978,-0.468637l-12.273956,0c-0.843834,0 -1.534244,0.45 -1.534244,1l0,14c0,0.55 0.69041,1 1.534244,1l12.273956,0c0.843834,0 1.534244,-0.45 1.534244,-1l0,-14c0,-0.55 -0.69041,-1 -1.534244,-1l0,0zm-6.136978,15.3c-1.104656,0 -1.994518,-0.58 -1.994518,-1.3c0,-0.72 0.889862,-1.3 1.994518,-1.3c1.104656,0 1.994518,0.58 1.994518,1.3c0,0.72 -0.889862,1.3 -1.994518,1.3l0,0zm6.136978,-3.3l-12.273956,0l0,-10l12.273956,0l0,10l0,0z"/>
  </g>
 </g>
</svg>